Walking05_kinetics.mot
version=1
nRows=36
nColumns=19
inDegrees=yes
endheader
time	1_ground_force_vx	1_ground_force_vy	1_ground_force_vz	1_ground_force_px	1_ground_force_py	1_ground_force_pz	2_ground_force_vx	2_ground_force_vy	2_ground_force_vz	2_ground_force_px	2_ground_force_py	2_ground_force_pz	1_ground_torque_x	1_ground_torque_y	1_ground_torque_z	2_ground_torque_x	2_ground_torque_y	2_ground_torque_z
  0.49000000	182.64322031	566.14672826	-15.84734143	 -0.24220857	 -0.00053767	  0.13886419	-87.75473360	395.76213686	  7.17837341	  0.29989188	  0.00247067	  0.03033884	  0.00385772	  2.98028708	 -0.00189726	 -0.00048275	  0.37043218	 -0.00001224
  0.49100000	182.10784174	558.59304955	-15.06675594	 -0.24202993	 -0.00053797	  0.13875462	-89.84249479	401.09414579	  6.31940104	  0.30058008	  0.00247155	  0.02977043	  0.00380133	  2.93672263	 -0.00186953	 -0.00047086	  0.36131135	 -0.00001194
  0.49200000	181.48396660	550.84831858	-14.27492093	 -0.24184078	 -0.00053828	  0.13865004	-91.93065064	407.81456923	  5.45227261	  0.30122868	  0.00247238	  0.02913966	  0.00374462	  2.89291368	 -0.00184164	 -0.00045002	  0.34532124	 -0.00001141
  0.49300000	180.76835377	542.92368979	-13.47360982	 -0.24164210	 -0.00053860	  0.13855307	-94.04329630	415.76128970	  4.60709741	  0.30183911	  0.00247315	  0.02850576	  0.00368590	  2.84754967	 -0.00181276	 -0.00042627	  0.32709623	 -0.00001081
  0.49400000	179.95881342	534.82943900	-12.66446993	 -0.24143624	 -0.00053892	  0.13846677	-96.18629301	424.61681654	  3.81435777	  0.30241147	  0.00247388	  0.02791795	  0.00362353	  2.79935960	 -0.00178208	 -0.00040534	  0.31103540	 -0.00001028
  0.49500000	179.05436961	526.57058168	-11.84867927	 -0.24122645	 -0.00053924	  0.13839345	-98.34771004	433.99264253	  3.10289692	  0.30294526	  0.00247456	  0.02740465	  0.00355646	  2.74754558	 -0.00174910	 -0.00039083	  0.29990314	 -0.00000991
  0.49600000	178.05563775	518.14772858	-11.02693040	 -0.24101610	 -0.00053955	  0.13833304	-100.50049612	443.46787347	  2.49767730	  0.30344054	  0.00247519	  0.02697792	  0.00348484	  2.69222122	 -0.00171388	 -0.00038434	  0.29491824	 -0.00000974
  0.49700000	176.96400474	509.55940750	-10.19929885	 -0.24080745	 -0.00053985	  0.13828247	-102.60660029	452.61418810	  2.01780333	  0.30389877	  0.00247577	  0.02664183	  0.00341018	  2.63453541	 -0.00167715	 -0.00038624	  0.29637549	 -0.00000979
  0.49800000	175.77890551	500.80300873	 -9.36479168	 -0.24060012	 -0.00054015	  0.13823688	-104.62182057	461.03100513	  1.67512668	  0.30432234	  0.00247632	  0.02639551	  0.00333477	  2.57628351	 -0.00164007	 -0.00039623	  0.30404754	 -0.00001005
  0.49900000	174.49509495	491.87472945	 -8.52116622	 -0.24039009	 -0.00054045	  0.13819150	-106.50051617	468.38663154	  1.47297333	  0.30471369	  0.00247682	  0.02623233	  0.00326099	  2.51927975	 -0.00160378	 -0.00041345	  0.31725963	 -0.00001048
  0.50000000	173.10254072	482.76980631	 -7.66585005	 -0.24017047	 -0.00054077	  0.13814290	-108.19932179	474.45250035	  1.40437937	  0.30507476	  0.00247729	  0.02613880	  0.00319058	  2.46488808	 -0.00156916	 -0.00043622	  0.33472956	 -0.00001106
  0.50100000	171.58893147	473.48339085	 -6.79776095	 -0.23993361	 -0.00054111	  0.13808914	-109.67988145	479.12288395	  1.45036968	  0.30540714	  0.00247772	  0.02609506	  0.00312450	  2.41383392	 -0.00153666	 -0.00046179	  0.35435210	 -0.00001171
  0.50200000	169.94212311	464.01181869	 -5.91857469	 -0.23967296	 -0.00054148	  0.13802938	-110.91118958	482.40777391	  1.58052130	  0.30571252	  0.00247812	  0.02607785	  0.00306294	  2.36628034	 -0.00150638	 -0.00048657	  0.37336889	 -0.00001234
  0.50300000	168.15055940	454.35394711	 -5.03245668	 -0.23938329	 -0.00054190	  0.13796327	-111.87183526	484.39393097	  1.75720848	  0.30599308	  0.00247848	  0.02606634	  0.00300577	  2.32211148	 -0.00147826	 -0.00050715	  0.38915608	 -0.00001286
  0.50400000	166.20230835	444.51214632	 -4.14498569	 -0.23906003	 -0.00054236	  0.13789059	-112.55180783	485.19961852	  1.94147230	  0.30625180	  0.00247882	  0.02604717	  0.00295281	  2.28119764	 -0.00145222	 -0.00052142	  0.40010512	 -0.00001322
  0.50500000	164.08405336	434.49243316	 -3.26245967	 -0.23869898	 -0.00054288	  0.13781139	-112.95320049	484.95608633	  2.09758293	  0.30649243	  0.00247913	  0.02601468	  0.00290385	  2.24337446	 -0.00142814	 -0.00052891	  0.40585785	 -0.00001341
  0.50600000	161.78056842	424.30380939	 -2.39178903	 -0.23829667	 -0.00054346	  0.13772646	-113.08976009	483.81677176	  2.19575267	  0.30671919	  0.00247943	  0.02596669	  0.00285827	  2.20816300	 -0.00140572	 -0.00053025	  0.40688422	 -0.00001344
  0.50700000	159.27484527	413.95751917	 -1.54044415	 -0.23785078	 -0.00054409	  0.13763725	-112.98572028	481.96493831	  2.21402492	  0.30693612	  0.00247971	  0.02590181	  0.00281480	  2.17457779	 -0.00138434	 -0.00052661	  0.40409372	 -0.00001335
  0.50800000	156.54886101	403.46677552	 -0.71606134	 -0.23736032	 -0.00054478	  0.13754491	-112.67409488	479.59951024	  2.14002507	  0.30714627	  0.00247998	  0.02582177	  0.00277169	  2.14127294	 -0.00136314	 -0.00051988	  0.39892783	 -0.00001318
  0.50900000	153.58447643	392.84713207	  0.07420842	 -0.23682545	 -0.00054554	  0.13744888	-112.19429694	476.91156243	  1.97233284	  0.30735122	  0.00248024	  0.02573485	  0.00272722	  2.10691772	 -0.00134127	 -0.00051289	  0.39356415	 -0.00001300
  0.51000000	150.36377200	382.11751807	  0.82438219	 -0.23624689	 -0.00054635	  0.13734636	-111.58870873	474.07302609	  1.72087062	  0.30755150	  0.00248050	  0.02565442	  0.00268021	  2.07059591	 -0.00131815	 -0.00050906	  0.39062123	 -0.00001291
  0.51100000	146.86883970	371.30170247	  1.53016412	 -0.23562520	 -0.00054723	  0.13723266	-110.89858806	471.23961522	  1.40589373	  0.30774779	  0.00248076	  0.02559237	  0.00263038	  2.03209980	 -0.00129364	 -0.00051133	  0.39236912	 -0.00001296
  0.51200000	143.08165057	360.42956493	  2.18889141	 -0.23496033	 -0.00054817	  0.13710203	-110.16112113	468.55377466	  1.05493648	  0.30794192	  0.00248101	  0.02555380	  0.00257837	  1.99192620	 -0.00126807	 -0.00052139	  0.40008851	 -0.00001322
  0.51300000	138.98439750	349.53756921	  2.79868016	 -0.23425169	 -0.00054919	  0.13694854	-109.40884861	466.13813090	  0.69761119	  0.30813689	  0.00248126	  0.02553708	  0.00252523	  1.95086768	 -0.00124193	 -0.00053955	  0.41402282	 -0.00001368
  0.51400000	134.56022699	338.66816126	  3.35729633	 -0.23349856	 -0.00055028	  0.13676698	-108.67061361	464.08576764	  0.36039057	  0.30833640	  0.00248152	  0.02553721	  0.00247159	  1.90942815	 -0.00121555	 -0.00056514	  0.43365619	 -0.00001433
  0.51500000	129.79405277	327.86783001	  3.86146424	 -0.23270037	 -0.00055145	  0.13655393	-107.97262087	462.45836534	  0.06409804	  0.30854440	  0.00248179	  0.02554826	  0.00241716	  1.86737979	 -0.00118878	 -0.00059668	  0.45785661	 -0.00001513
  0.51600000	124.67390337	317.18409516	  4.30690716	 -0.23185697	 -0.00055270	  0.13630889	-107.33920984	461.29366342	 -0.17571108	  0.30876503	  0.00248208	  0.02556401	  0.00236046	  1.82357765	 -0.00116090	 -0.00063186	  0.48485093	 -0.00001602
  0.51700000	119.19434700	306.66277326	  4.68927697	 -0.23096926	 -0.00055402	  0.13603469	-106.79375643	460.61621920	 -0.34746483	  0.30900293	  0.00248239	  0.02557793	  0.00229896	  1.77606822	 -0.00113065	 -0.00066774	  0.51238959	 -0.00001693
  0.51800000	113.36285533	296.34636400	  5.00595295	 -0.23004049	 -0.00055541	  0.13573690	-106.35990139	460.44680580	 -0.44278950	  0.30926389	  0.00248273	  0.02558315	  0.00222963	  1.72250532	 -0.00109655	 -0.00070151	  0.53829890	 -0.00001779
  0.51900000	107.20778474	286.27255782	  5.25805241	 -0.22907721	 -0.00055686	  0.13542256	-106.06247879	460.80945958	 -0.45584756	  0.30955550	  0.00248311	  0.02557274	  0.00214971	  1.66076075	 -0.00105725	 -0.00073116	  0.56104856	 -0.00001854
  0.52000000	100.78590529	276.47138608	  5.45180250	 -0.22808863	 -0.00055834	  0.13509894	-105.92728793	461.73643880	 -0.38184807	  0.30988729	  0.00248354	  0.02553972	  0.00205759	  1.58959112	 -0.00101194	 -0.00075559	  0.57979747	 -0.00001916
  0.52100000	 94.18836105	266.96124908	  5.59894196	 -0.22708474	 -0.00055985	  0.13477255	-105.97969457	463.27061474	 -0.21481144	  0.31027008	  0.00248404	  0.02547707	  0.00195364	  1.50928395	 -0.00096082	 -0.00077400	  0.59392678	 -0.00001962
  0.52200000	 87.54395927	257.74628090	  5.71601381	 -0.22607565	 -0.00056136	  0.13444919	-106.24304678	465.46374637	  0.05425004	  0.31071439	  0.00248461	  0.02537802	  0.00184088	  1.42217468	 -0.00090536	 -0.00078532	  0.60261209	 -0.00001991
  0.52300000	 81.01722292	248.81681261	  5.82235917	 -0.22507337	 -0.00056286	  0.13413493	-106.73770796	468.36977267	  0.43779225	  0.31122799	  0.00248528	  0.02523693	  0.00172525	  1.33284694	 -0.00084850	 -0.00078821	  0.60482994	 -0.00001998
  0.52400000	 74.79541046	240.15162421	  5.93676851	 -0.22409319	 -0.00056432	  0.13383669	-107.48066325	472.03465815	  0.95068712	  0.31181386	  0.00248604	  0.02505051	  0.00161497	  1.24765029	 -0.00079426	 -0.00078146	  0.59964623	 -0.00001981
  0.52500000	 69.05726192	231.71998606	  6.07271536	 -0.22315031	 -0.00056572	  0.13356036	-108.48548726	476.48506626	  1.60771193	  0.31247011	  0.00248688	  0.02481888	  0.00151846	  1.17308733	 -0.00074679	 -0.00076430	  0.58647929	 -0.00001938
